<svg width="16pt" height="16pt" version="1.0" viewBox="0 0 16 16" xmlns="http://www.w3.org/2000/svg">
<path d="m8 1.2987e-4 -3.5794 3.5794 3.5794 3.5794 3.5794-3.5794zm0 1.4318 2.1476 2.1476-2.1476 2.1476-2.1476-2.1476z"/>
<rect transform="rotate(45)" x="7.1755" y="-4.1381" width="2.0248" height="2.0248" rx="0" ry="0"/>
<path transform="scale(.75)" d="m5.8941 5.7272 3.912e-4 3.3294 4.4355 4.4355v0.97656l-4.4355-4.457v3.3516l4.4355 4.4355h0.67383l4.4355-4.4355v-3.3516l-4.4355 4.457v-0.97656l4.4355-4.4355-2.62e-4 -3.3294-4.4351 4.4351-0.67492 1e-6z"/>
<path d="m7.7469 6.9058-9.5e-6 8.8409 0.25307 0.25313 0.25309-0.25304 3.83e-5 -8.841-0.25311-0.46284z"/>
<path d="m3.9144 4.0857-1.4318 1.4317v8.3348l1.4318-1.4317z"/>
<path d="m12.086 4.0857 1.4318 1.4317v8.3348l-1.4317-1.4318z"/>
</svg>
