<svg width="400" height="400" version="1.1" viewBox="0 0 105.83 105.83" xmlns="http://www.w3.org/2000/svg">
	<g fill="#1a1a1a">
		<path d="m52.913-2.4921e-7 -42.33 9.7189v59.841l42.332 36.27 42.332-36.27v-59.841z"/>
	</g>
	<g fill="#e6e6e6">
		<path d="m23.517 42.275-10.289 8.8155v17.364l10.289 8.8155v-22.529l29.396 25.187 29.397-25.187v22.529l10.289-8.8155v-17.364l-10.289-8.8155-29.397 25.186z"/>
		<path d="m27.16 67.924v12.467l25.755 22.066 25.755-22.065v-12.467l-25.755 22.065z"/>
		<path transform="scale(.26458)" d="m200 9.7129-149.99 34.439-0.003906-0.001953v132.27l38.891-33.32v-73.377l111.11-25.51 111.11 25.51v73.377l38.889 33.32v-132.27-0.003906l-0.0039 0.001953-150-34.439z"/>
		<path d="m27.161 39.58 25.754 22.065 25.754-22.065v-5.32e-4l-25.754-22.065zm25.754-8.8306 10.301 8.8261-10.301 8.8261-10.301-8.8261z"/>
	</g>
</svg>