<svg width="400" height="400" version="1.1" viewBox="0 0 400 400" xmlns="http://www.w3.org/2000/svg">
  <g fill="#d50000">
	<path d="m132.93 130.59 62.338 62.338v26.803l-62.338-62.34z"/>
	<path d="m267.07 130.59v26.801l-62.338 62.34v-26.803z"/>
	<path d="m123.39 126.66v156.24l-26.814 26.814v-156.24z"/>
	<path d="m276.61 126.66 26.814 26.814v156.24l-26.814-26.814z"/>
</g>
<g fill="#1a1a1a">
	<path d="m200 50.01-67.117 67.117 67.117 67.117 67.117-67.117zm0 13.423 53.693 53.693-53.693 53.693-53.693-53.693z"/>
	<path d="m200 76.844-40.27 40.27 40.27 40.27 40.27-40.27zm0 13.423 26.846 26.846-26.846 26.846-26.846-26.846z"/>
	<path d="m132.92 170.82v26.846l62.371 62.371v13.423l-62.371-62.371v26.846l62.371 62.371h9.4915l62.371-62.371v-26.846l-62.371 62.371v-13.423l62.371-62.371v-26.846l-62.371 62.371v0.32717h-9.4915v-0.32717z"/>
	<path d="m195.16 179.5-1.8e-4 165.77 4.7452 4.7465 4.7456-4.7449 7.1e-4 -165.78-4.746-8.6786z"/>
	<path d="m199.9 103.72 13.377 13.377-13.377 13.377-13.377-13.375z"/>
</g>
</svg>
